# xmcd CD database file
#
# Track frame offsets:
#	150
#	17786
#	26621
#	43279
#	46785
#	63309
#	75250
#	93317
#	120105
#	125567
#	137772
#	152368
#	155631
#	171272
#	176255
#	195685
#	204027
#	211331
#	221879
#	227940
#
# Disc length: 3446 seconds
#
# Revision: 0
# Processed by: cddbd v1.5.2PL0 Copyright (c) Steve Scherf et al.
# Submitted via: CDex 1.51
#
DISCID=060d7414
DTITLE=Yves Robert - L'Argent
DYEAR=2006
DGENRE=Jazz
TTITLE0=L'argent permet
TTITLE1=Mon trésor
TTITLE2=Accumuler
TTITLE3=Enrichissement
TTITLE4=Crime
TTITLE5=Mon trésor
TTITLE6=Pression
TTITLE7=Opinion du marché
TTITLE8=Acteur du marché
TTITLE9=Mon trésor
TTITLE10=Caisse de la société
TTITLE11=Produire de la valeur
TTITLE12=Du côté de la pulsion
TTITLE13=Mon trésor
TTITLE14=Intérêt à y rester
TTITLE15=Mon trésor
TTITLE16=Vers le bonheur
TTITLE17=Besoin tout le temps
TTITLE18=Mon trésor
TTITLE19=Non plus - jamais assez
EXTD=YEAR: 2006
EXTT0=
EXTT1=
EXTT2=
EXTT3=
EXTT4=
EXTT5=
EXTT6=
EXTT7=
EXTT8=
EXTT9=
EXTT10=
EXTT11=
EXTT12=
EXTT13=
EXTT14=
EXTT15=
EXTT16=
EXTT17=
EXTT18=
EXTT19=
PLAYORDER=
